<svg width="82" height="82" viewBox="0 0 82 82" fill="none" xmlns="http://www.w3.org/2000/svg">
<circle r="9" transform="matrix(-1 0 0 1 63 41)" fill="white"/>
<rect x="36" y="21" width="11" height="40" fill="white"/>
<path d="M48 33.5C48 32.6716 48.6716 32 49.5 32H52.5C53.3284 32 54 32.6716 54 33.5V33.5C54 34.3284 53.3284 35 52.5 35H49.5C48.6716 35 48 34.3284 48 33.5V33.5Z" fill="white"/>
<path d="M12 33.5C12 32.6716 12.6716 32 13.5 32H33.5C34.3284 32 35 32.6716 35 33.5V33.5C35 34.3284 34.3284 35 33.5 35H13.5C12.6716 35 12 34.3284 12 33.5V33.5Z" fill="white"/>
<path d="M12 38.5C12 37.6716 12.6716 37 13.5 37H33.5C34.3284 37 35 37.6716 35 38.5V38.5C35 39.3284 34.3284 40 33.5 40H13.5C12.6716 40 12 39.3284 12 38.5V38.5Z" fill="white"/>
<path d="M12 43.5C12 42.6716 12.6716 42 13.5 42H33.5C34.3284 42 35 42.6716 35 43.5V43.5C35 44.3284 34.3284 45 33.5 45H13.5C12.6716 45 12 44.3284 12 43.5V43.5Z" fill="white"/>
<path d="M12 48.5C12 47.6716 12.6716 47 13.5 47H33.5C34.3284 47 35 47.6716 35 48.5V48.5C35 49.3284 34.3284 50 33.5 50H13.5C12.6716 50 12 49.3284 12 48.5V48.5Z" fill="white"/>
<path d="M48 38.5C48 37.6716 48.6716 37 49.5 37H50.5C51.3284 37 52 37.6716 52 38.5V38.5C52 39.3284 51.3284 40 50.5 40H49.5C48.6716 40 48 39.3284 48 38.5V38.5Z" fill="white"/>
<path d="M48 43.5C48 42.6716 48.6716 42 49.5 42H50.5C51.3284 42 52 42.6716 52 43.5V43.5C52 44.3284 51.3284 45 50.5 45H49.5C48.6716 45 48 44.3284 48 43.5V43.5Z" fill="white"/>
<path d="M48 48.5C48 47.6716 48.6716 47 49.5 47H52.5C53.3284 47 54 47.6716 54 48.5V48.5C54 49.3284 53.3284 50 52.5 50H49.5C48.6716 50 48 49.3284 48 48.5V48.5Z" fill="white"/>
</svg>
