<svg width="82" height="82" viewBox="0 0 82 82" fill="none" xmlns="http://www.w3.org/2000/svg">
<path fill-rule="evenodd" clip-rule="evenodd" d="M53 41C53.5523 41 54.004 40.5507 53.9621 40C53.4766 33.6176 48.3824 28.5234 42 28.0379C41.4493 27.996 41 28.4477 41 29V29C41 29.5523 41.4492 29.9952 41.9993 30.0448C47.277 30.52 51.48 34.723 51.9552 40.0007C52.0048 40.5508 52.4477 41 53 41V41ZM40 53.9621C40.5507 54.004 41 53.5523 41 53V53C41 52.4477 40.5508 52.0048 40.0007 51.9552C34.723 51.48 30.52 47.277 30.0448 41.9993C29.9952 41.4492 29.5523 41 29 41V41C28.4477 41 27.996 41.4493 28.0379 42C28.5234 48.3824 33.6176 53.4766 40 53.9621Z" fill="white"/>
<circle r="9" transform="matrix(-1 0 0 1 41 41)" fill="white"/>
</svg>
