<svg width="82" height="82" viewBox="0 0 82 82" fill="none" xmlns="http://www.w3.org/2000/svg">
<path fill-rule="evenodd" clip-rule="evenodd" d="M45.8429 40.75L57.831 15.4279C58.1451 14.7645 57.6612 14 56.9272 14H24.5798C23.8458 14 23.3619 14.7645 23.676 15.4279L35.6642 40.75L23.676 66.0721C23.3619 66.7355 23.8458 67.5 24.5798 67.5H56.9272C57.6612 67.5 58.1451 66.7355 57.831 66.0721L45.8429 40.75ZM43.75 45.2571C43.75 45.2002 43.7626 45.144 43.787 45.0925L45.8429 40.75L43.787 36.4075C43.7626 36.356 43.75 36.2998 43.75 36.2429V36.2429C43.75 36.1861 43.7626 36.13 43.7869 36.0786L51.7707 19.1771C52.0841 18.5138 51.6002 17.75 50.8665 17.75H30.6405C29.9069 17.75 29.423 18.5138 29.7363 19.1771L37.7068 36.0502C37.7352 36.1105 37.75 36.1762 37.75 36.2428V36.2428C37.75 36.3096 37.7352 36.3755 37.7066 36.4358L35.6642 40.75L37.7066 45.0642C37.7352 45.1245 37.75 45.1904 37.75 45.2572V45.2572C37.75 45.3238 37.7352 45.3895 37.7068 45.4498L29.7363 62.3229C29.423 62.9862 29.9069 63.75 30.6405 63.75H50.8665C51.6002 63.75 52.0841 62.9862 51.7707 62.3229L43.7869 45.4214C43.7626 45.37 43.75 45.3139 43.75 45.2571V45.2571Z" fill="white"/>
<path fill-rule="evenodd" clip-rule="evenodd" d="M45.8429 40.75L43.7092 36.2431L41.5802 40.75L43.7092 45.2569L45.8429 40.75ZM37.7979 45.2569L35.6642 40.75L37.7979 36.2431L39.9269 40.75L37.7979 45.2569Z" fill="white"/>
</svg>
